<svg xmlns="http://www.w3.org/2000/svg" xmlns:xlink="http://www.w3.org/1999/xlink" width="500" zoomAndPan="magnify" viewBox="0 0 375 374.999991" height="500" preserveAspectRatio="xMidYMid meet" version="1.2"><defs><clipPath id="6348808556"><path d="M 123.761719 123.316406 L 264.890625 123.316406 L 264.890625 264.445312 L 123.761719 264.445312 Z M 123.761719 123.316406 "/></clipPath><clipPath id="efcf3a87c2"><path d="M 194.324219 123.316406 C 155.351562 123.316406 123.761719 154.910156 123.761719 193.882812 C 123.761719 232.855469 155.351562 264.445312 194.324219 264.445312 C 233.296875 264.445312 264.890625 232.855469 264.890625 193.882812 C 264.890625 154.910156 233.296875 123.316406 194.324219 123.316406 Z M 194.324219 123.316406 "/></clipPath><clipPath id="e9342d0964"><path d="M 169.769531 172.140625 L 218.882812 172.140625 L 218.882812 221.253906 L 169.769531 221.253906 Z M 169.769531 172.140625 "/></clipPath><clipPath id="a2e94c123f"><path d="M 194.324219 172.140625 C 180.761719 172.140625 169.769531 183.136719 169.769531 196.699219 C 169.769531 210.261719 180.761719 221.253906 194.324219 221.253906 C 207.886719 221.253906 218.882812 210.261719 218.882812 196.699219 C 218.882812 183.136719 207.886719 172.140625 194.324219 172.140625 Z M 194.324219 172.140625 "/></clipPath></defs><g id="83413ffc23"><g clip-rule="nonzero" clip-path="url(#6348808556)"><g clip-rule="nonzero" clip-path="url(#efcf3a87c2)"><path style=" stroke:none;fill-rule:nonzero;fill:#02924d;fill-opacity:1;" d="M 123.761719 123.316406 L 264.890625 123.316406 L 264.890625 264.445312 L 123.761719 264.445312 Z M 123.761719 123.316406 "/></g></g><g style="fill:#ffffff;fill-opacity:1;"><g transform="translate(137.061013, 241.754977)"><path style="stroke:none" d="M 105.484375 -48.046875 L 105.484375 -40.3125 L 24.65625 -40.3125 C 26.039062 -32.375 29.867188 -25.898438 36.140625 -20.890625 C 42.546875 -15.734375 49.644531 -13.15625 57.4375 -13.15625 C 62.726562 -13.15625 67.8125 -14.410156 72.6875 -16.921875 C 77.425781 -19.285156 81.394531 -22.628906 84.59375 -26.953125 L 101.3125 -26.953125 C 97.414062 -18.171875 91.566406 -11.273438 83.765625 -6.265625 C 75.828125 -1.109375 67.820312 1.46875 59.75 1.46875 C 51.53125 1.46875 44.566406 0.210938 38.859375 -2.296875 C 33.003906 -4.804688 27.921875 -8.21875 23.609375 -12.53125 C 14.140625 -21.71875 9.40625 -33 9.40625 -46.375 C 9.40625 -59.601562 14.140625 -70.953125 23.609375 -80.421875 C 32.929688 -89.753906 44.207031 -94.421875 57.4375 -94.421875 C 70.25 -94.421875 81.460938 -89.894531 91.078125 -80.84375 C 100.679688 -71.644531 105.484375 -60.710938 105.484375 -48.046875 Z M 90.03125 -52.84375 C 88.363281 -60.644531 84.460938 -67.125 78.328125 -72.28125 C 72.203125 -77.289062 65.238281 -79.796875 57.4375 -79.796875 C 45.46875 -79.796875 36.070312 -74.4375 29.25 -63.71875 C 27.15625 -60.375 25.691406 -56.75 24.859375 -52.84375 Z M 90.03125 -52.84375 "/></g></g><g style="fill:#000000;fill-opacity:1;"><g transform="translate(250.918033, 241.754977)"><path style="stroke:none" d="M 27.78125 2.09375 C 24.582031 2.09375 21.796875 0.90625 19.421875 -1.46875 C 16.921875 -3.6875 15.671875 -6.398438 15.671875 -9.609375 C 15.671875 -12.804688 16.851562 -15.59375 19.21875 -17.96875 C 21.582031 -20.332031 24.4375 -21.515625 27.78125 -21.515625 C 31.125 -21.515625 34.050781 -20.398438 36.5625 -18.171875 C 38.925781 -15.804688 40.109375 -13.019531 40.109375 -9.8125 C 40.109375 -6.46875 38.851562 -3.6875 36.34375 -1.46875 C 33.84375 0.90625 30.988281 2.09375 27.78125 2.09375 Z M 27.78125 2.09375 "/></g></g><g clip-rule="nonzero" clip-path="url(#e9342d0964)"><g clip-rule="nonzero" clip-path="url(#a2e94c123f)"><path style=" stroke:none;fill-rule:nonzero;fill:#000000;fill-opacity:1;" d="M 169.769531 172.140625 L 218.882812 172.140625 L 218.882812 221.253906 L 169.769531 221.253906 Z M 169.769531 172.140625 "/></g></g></g></svg>